<svg fill="none" height="512" viewBox="0 0 128 128" width="512" xmlns="http://www.w3.org/2000/svg"><g clip-rule="evenodd" fill-rule="evenodd"><path d="m45 27.8337c0 1.3821-.5703 2.701-1.579 3.6458-1.91 1.7888-4.9626 4.6456-5.708 5.3294-3.0078 2.8343-4.713 6.784-4.713 10.9169v61.2742c0 2.761 2.2386 5 5 5h42c2.7614 0 5-2.239 5-5v-12.3183c11.9057-1.9145 21-12.2361 21-24.6817 0-12.4476-9.0971-22.7704-21.0056-24.6826-.1083-3.9838-1.7988-7.7677-4.7074-10.5085-.7532-.7037-3.7986-3.5546-5.7061-5.3403-1.0097-.9453-1.5809-2.265-1.5809-3.6482v-8.8204c0-2.7614-2.2386-5-5-5h-18c-2.7614 0-5 2.2386-5 5zm11 44.1663c0 12.4456 9.0943 22.7672 21 24.6817v9.3183h-36v-58.2742c0-1.9287.7957-3.7719 2.1994-5.0946l5.976-5.6312h19.6492l5.976 5.6312c1.3049 1.2297 2.0844 2.9092 2.1877 4.689-11.9 1.9194-20.9883 12.2383-20.9883 24.6798zm9-43v-7h-12v7zm16 60c9.3888 0 17-7.6112 17-17s-7.6112-17-17-17-17 7.6112-17 17 7.6112 17 17 17z" fill="#000"/><path d="m81 97c13.8071 0 25-11.1929 25-25s-11.1929-25-25-25-25 11.1929-25 25 11.1929 25 25 25zm0-11c6.0751 0 11-4.856 11-10.8462 0-4.6298-6.5711-12.9475-9.5557-16.4865-.7632-.905-2.1254-.905-2.8886-.0001-2.9846 3.5391-9.5557 11.8568-9.5557 16.4866 0 5.9902 4.9249 10.8462 11 10.8462z" fill="#ce3b3b"/></g></svg>